<?xml version="1.0" encoding="UTF-8" standalone="no"?>
<!-- Created with Inkscape (http://www.inkscape.org/) -->

<svg
   width="151.7444mm"
   height="175.79329mm"
   viewBox="0 0 151.7444 175.79329"
   version="1.1"
   id="svg1"
   xml:space="preserve"
   inkscape:export-filename="비트맵.svg"
   inkscape:export-xdpi="96"
   inkscape:export-ydpi="96"
   inkscape:version="1.4 (e7c3feb1, 2024-10-09)"
   sodipodi:docname="oni.svg"
   xmlns:inkscape="http://www.inkscape.org/namespaces/inkscape"
   xmlns:sodipodi="http://sodipodi.sourceforge.net/DTD/sodipodi-0.dtd"
   xmlns="http://www.w3.org/2000/svg"
   xmlns:svg="http://www.w3.org/2000/svg"><sodipodi:namedview
     id="namedview1"
     pagecolor="#ffffff"
     bordercolor="#000000"
     borderopacity="0.25"
     inkscape:showpageshadow="2"
     inkscape:pageopacity="0.0"
     inkscape:pagecheckerboard="0"
     inkscape:deskcolor="#d1d1d1"
     inkscape:document-units="mm"
     inkscape:zoom="0.27062124"
     inkscape:cx="369.52015"
     inkscape:cy="668.83147"
     inkscape:window-width="1280"
     inkscape:window-height="947"
     inkscape:window-x="0"
     inkscape:window-y="39"
     inkscape:window-maximized="0"
     inkscape:current-layer="layer1"><inkscape:page
       x="0"
       y="0"
       width="151.7444"
       height="175.79329"
       id="page2"
       margin="0"
       bleed="0" /></sodipodi:namedview><defs
     id="defs1" /><g
     inkscape:label="Layer 1"
     inkscape:groupmode="layer"
     id="layer1"
     transform="translate(-26.818999,-28.488871)"><path
       style="fill:#000000"
       d="m 100.79879,204.0913 c -1.837227,-0.47017 -2.717847,-1.23863 -4.762207,-4.15569 -3.80468,-5.42882 -7.78935,-8.08346 -16.85427,-11.22852 -11.87959,-4.1216 -18.219254,-7.44328 -27.869439,-14.60226 -6.222991,-4.61651 -14.560731,-14.70045 -18.25595,-22.07935 -2.65256,-5.29683 -4.913962,-12.42038 -5.767533,-18.16805 -0.381345,-2.56786 -0.5987,-11.99296 -0.388358,-16.84022 0.147168,-3.39142 1.875126,-11.20233 3.532526,-15.96811 1.929851,-5.549205 7.734718,-15.498935 11.747456,-20.135515 2.548044,-2.94417 7.22799,-7.66253 8.895634,-8.968649 3.381499,-2.648428 4.441209,-3.444453 6.586224,-4.947389 3.866088,-2.708832 4.464347,-3.107266 7.403122,-4.930389 8.822268,-5.473059 9.877588,-6.26539 15.270788,-11.465277 6.1594,-5.93863 7.92693,-9.062921 8.72034,-15.414096 0.17436,-1.395738 0.56793,-3.022926 0.87461,-3.615972 0.51459,-0.995113 0.69972,-1.077849 2.40062,-1.072863 1.01366,0.003 2.01769,0.122033 2.23118,0.264583 0.72559,0.484485 1.30868,2.000475 1.52106,3.954634 l 0.21183,1.948992 1.8362,-3.760483 c 1.66634,-3.412624 1.954347,-3.799478 3.113507,-4.182033 1.06467,-0.351373 1.53603,-0.322742 2.83145,0.171986 1.83123,0.699352 2.5852,1.666139 3.72149,4.771919 l 0.83895,2.293055 0.19547,-1.5875 c 0.41591,-3.377735 2.25978,-5.053417 4.68126,-4.254258 0.66704,0.220145 1.47003,0.684493 1.78442,1.031884 0.31817,0.351584 0.95765,2.574511 1.44232,5.013803 1.32764,6.681834 2.42701,8.617611 8.05546,14.184084 4.54292,4.492896 9.39266,8.056182 17.0295,12.512189 1.37253,0.800859 4.78566,3.171974 7.58472,5.269144 20.08634,15.049496 30.12923,35.130821 29.07733,58.141761 -0.45062,9.8575 -1.86896,16.17014 -5.42234,24.13333 -6.1481,13.77801 -17.30505,25.08445 -31.98847,32.4171 -2.87109,1.43377 -4.06257,1.90757 -13.9176,5.53442 -9.40732,3.46209 -13.57075,6.10108 -16.48722,10.45042 -0.92446,1.37864 -2.24224,3.13994 -2.92842,3.914 -1.1767,1.32741 -1.37714,1.41457 -3.52777,1.53393 -1.25411,0.0696 -2.79216,-0.004 -3.41789,-0.16461 z m 5.26799,-11.27554 c 4.47423,-5.26402 9.78136,-8.43005 20.21137,-12.05733 9.27548,-3.22576 16.60969,-6.93698 21.90312,-11.08331 6.60302,-5.17213 13.43516,-13.48905 16.90731,-20.58166 5.1418,-10.50324 7.01649,-24.22792 4.93766,-36.14883 -0.78673,-4.51147 -3.3868,-12.06874 -5.65257,-16.429575 -3.80998,-7.33291 -10.77754,-15.55681 -17.8108,-21.02232 -4.35258,-3.382363 -6.23986,-4.677164 -12.87639,-8.834059 -2.71639,-1.701455 -6.76451,-4.406497 -8.99583,-6.011204 -8.5563,-6.153471 -19.07706,-17.47426 -21.42458,-23.053763 -0.42267,-1.004587 -0.60597,-1.165688 -0.85351,-0.750161 -0.17339,0.291041 -0.90706,1.520592 -1.63039,2.732335 -2.700287,4.523642 -10.432887,13.042362 -16.364657,18.028336 -3.49429,2.937147 -8.07425,6.19393 -12.57774,8.943961 -10.565714,6.451905 -16.774587,11.214785 -22.280574,17.091625 -3.234173,3.45201 -7.508944,9.86281 -9.883375,14.82192 -2.096649,4.378945 -4.344546,11.952775 -4.905761,16.528955 -0.649397,5.29522 -0.493772,13.9287 0.340881,18.91073 1.64854,9.84011 5.052556,17.00752 12.380603,26.06829 3.252814,4.02194 5.148703,5.86994 9.112993,8.88277 7.266075,5.52218 14.734553,9.30903 24.870833,12.6106 7.78795,2.53669 13.09312,5.76071 18.1462,11.0277 1.637217,1.70652 3.225927,3.10277 3.530477,3.10277 0.30454,0 1.61617,-1.25 2.91473,-2.77778 z m -0.65025,-70.61323 c -1.86809,-0.57213 -4.48156,-2.55913 -5.31863,-4.04371 -0.968247,-1.71724 -1.014207,-2.70196 -0.162107,-3.4731 1.219527,-1.10367 2.038907,-0.68673 3.193897,1.62521 0.90282,1.80717 3.33505,2.82772 6.67475,2.8007 4.25698,-0.0344 6.38622,-0.97166 8.26827,-3.63938 1.07011,-1.51683 1.95522,-1.72401 2.90091,-0.67904 0.88791,0.98114 0.47553,2.20783 -1.4254,4.24009 -2.3803,2.54473 -4.40706,3.30158 -9.14507,3.41505 -2.13431,0.0511 -4.37828,-0.0595 -4.98662,-0.24582 z m -28.529837,-7.16626 c -4.37036,-2.03517 -7.24307,-8.28368 -6.75489,-14.69273 0.43087,-5.656475 2.93575,-10.052505 6.75746,-11.859225 2.22841,-1.05348 4.10737,-1.05682 6.35257,-0.0113 4.37036,2.03518 7.24307,8.28368 6.75488,14.692725 -0.43086,5.65649 -2.93574,10.05251 -6.75745,11.85923 -2.22841,1.05348 -4.10737,1.05682 -6.35257,0.0113 z m 59.619447,0 c -4.37037,-2.03517 -7.24308,-8.28368 -6.75489,-14.69273 0.43086,-5.656475 2.93574,-10.052505 6.75746,-11.859225 2.22841,-1.05348 4.10736,-1.05682 6.35256,-0.0113 4.37037,2.03518 7.24308,8.28368 6.75489,14.692725 -0.43086,5.65649 -2.93574,10.05251 -6.75745,11.85923 -2.22841,1.05348 -4.10737,1.05682 -6.35257,0.0113 z"
       id="path1"
       inkscape:export-filename="path1.png"
       inkscape:export-xdpi="96"
       inkscape:export-ydpi="96" /><path
       style="fill:#ffffff;stroke-width:1.40169"
       d="M 374.96504,724.82278 C 353.03206,704.06225 339.10205,695.944 304.86787,683.97096 246.57548,663.58382 207.94474,638.47587 178.78916,602.02643 c -25.08141,-31.35604 -37.96166,-57.8096 -44.49182,-91.37767 -2.03526,-10.46221 -2.52292,-19.71574 -2.46049,-46.68892 0.0763,-32.97244 0.16319,-33.96098 4.37354,-49.77126 5.81992,-21.85436 13.72051,-41.46858 23.16894,-57.51989 23.49566,-39.91519 49.8568,-64.72793 107.88856,-101.55136 32.46893,-20.60281 49.28678,-33.31157 67.58395,-51.07125 20.40704,-19.80756 34.43255,-35.95041 44.7721,-51.53103 l 8.55037,-12.88453 4.2899,8.02913 c 6.0713,11.36328 15.94646,23.78289 32.94649,41.4356 27.08505,28.12491 37.21756,36.07585 88.23337,69.23647 39.42371,25.62566 57.45657,40.7044 78.28326,65.45898 19.64967,23.35557 31.32124,43.77234 40.89435,71.53539 10.46064,30.33699 13.97205,57.18292 11.3729,86.94932 -5.02464,57.5436 -24.28386,98.87495 -65.29605,140.12897 -26.71293,26.87042 -50.58412,40.92781 -102.32347,60.2568 -41.40929,15.46985 -58.52098,25.5806 -75.61189,44.67668 -5.24372,5.85895 -10.10841,10.65263 -10.8104,10.65263 -0.70201,0 -7.53648,-5.92546 -15.18773,-13.16771 z M 442.2575,458.17906 c 12.68439,-7.12628 20.42217,-20.16916 15.11439,-25.47694 -3.22349,-3.22349 -7.13756,-1.6323 -14.28634,5.80784 -8.53565,8.88354 -16.51789,11.51513 -31.49456,10.38316 -12.12569,-0.91649 -16.07534,-2.91439 -21.9633,-11.11 -5.11618,-7.12136 -8.6277,-8.40528 -12.4726,-4.56037 -4.76071,4.76072 -0.98049,15.16322 7.98136,21.96327 10.3029,7.81758 11.68376,8.15941 31.18976,7.72096 17.41599,-0.39148 18.59543,-0.60651 25.93129,-4.72792 z M 315.35473,435.09012 c 28.16511,-13.23917 34.5759,-66.36124 11.13915,-92.30293 -19.0456,-21.0812 -47.76718,-12.39454 -58.12948,17.58087 -15.00665,43.41027 14.33681,90.07102 46.99033,74.72206 z m 226.09087,-0.67478 c 8.69391,-4.33237 13.45496,-9.66535 18.67322,-20.91639 12.19523,-26.29408 4.71719,-63.90667 -15.32472,-77.07935 -26.06946,-17.13431 -54.94933,8.27406 -54.88634,48.28875 0.0594,37.71624 25.79332,62.53601 51.53784,49.70699 z"
       id="path2"
       transform="scale(0.26458333)" /></g></svg>
